<?xml version="1.0" encoding="UTF-8"?>
<svg version="1.1" xmlns="http://www.w3.org/2000/svg" width="16" height="16">
<path d="M0 0 C1.65625 1.203125 1.65625 1.203125 3 3 C3.328125 5.6640625 3.328125 5.6640625 3.25 8.625 C3.23453125 9.60726563 3.2190625 10.58953125 3.203125 11.6015625 C3 14 3 14 2 15 C-0.53049402 15.07313567 -3.03304837 15.09247527 -5.5625 15.0625 C-6.27341797 15.05798828 -6.98433594 15.05347656 -7.71679688 15.04882812 C-9.47790013 15.03700864 -11.23896036 15.01907263 -13 15 C-13 10.71 -13 6.42 -13 2 C-8.21788219 -0.39105891 -5.3330247 -1.6968715 0 0 Z " fill="#067C98" transform="translate(13,1)"/>
</svg>
